<svg xmlns="http://www.w3.org/2000/svg" viewBox="473.412 6375.382 93.382 88.759">
  <defs>
    <style>
      .cls-1 {
        fill: none;
        stroke: #fff;
      }

      .cls-2 {
        fill: #c39456;
      }
    </style>
  </defs>
  <g id="Groupe_2072" data-name="Groupe 2072" transform="translate(-30.5 1406.5)">
    <path id="Tracé_2899" data-name="Tracé 2899" class="cls-1" d="M46.1,0,0,33.474,17.65,87.641H74.556l17.65-54.167Z" transform="translate(504.5 4969.5)"/>
    <path id="Tracé_271" data-name="Tracé 271" class="cls-2" d="M14.631,28.424a28.464,28.464,0,0,0,5.8.645h5.994a1.9,1.9,0,0,1,2.062,1.676,1.945,1.945,0,0,1-2.062,1.676h-8.25v2.256h8.25a4.185,4.185,0,0,0,4.383-3.932,4.145,4.145,0,0,0-4.383-3.932H20.5a26.885,26.885,0,0,1-5.221-.58,10.513,10.513,0,0,0-8.314,1.16L0,33.838l1.547,1.676,6.768-6.252A7.708,7.708,0,0,1,14.631,28.424Zm30.486-2.836a4.039,4.039,0,0,0-5.543-1.354l-7.541,3.932a5.317,5.317,0,0,1,.58,2.256L40.605,26.3a1.9,1.9,0,0,1,2.514.387,1.892,1.892,0,0,1-.967,2.449l-16.371,8.7-1.418.064-14.115.387-.129.064c-.258.064-2.32.709-4.834,3.545l1.676,1.482a10.607,10.607,0,0,1,3.674-2.836l15.082-.387h.258a2.389,2.389,0,0,0,.967-.322l16.242-8.7A4.152,4.152,0,0,0,45.117,25.588Zm-32.807-1.74a12.674,12.674,0,0,1,1.676.129,13.3,13.3,0,0,1-3.158-8.508,12.552,12.552,0,0,1,.773-4.383L14.115,13.6,13.6,16.371a1.135,1.135,0,0,0,.516,1.16l1.934,1.16,1.482,5.285a1.178,1.178,0,0,0,.967.838h.129a1.063,1.063,0,0,0,.967-.58l4.641-8.508a1.09,1.09,0,0,0,.064-.9.969.969,0,0,0-.58-.645l-4.834-2.514a1.882,1.882,0,0,0-.58-.129l-2.062.129-.129-.838,3.48-2.32a1.136,1.136,0,0,0,.516-.967L19.98,2.9a14,14,0,0,1,4-.645,12.734,12.734,0,0,1,4.705.9l-1.16,3.029a1.109,1.109,0,0,0,.451,1.354l1.418.9a.9.9,0,0,0,.709.129l3.158-.322L33,9.023l-3.48.387a.96.96,0,0,0-.58.258q-2.03,1.74-1.74,3.48a4.06,4.06,0,0,0,2.643,2.707.581.581,0,0,0,.322.064l.773.064,1.225,5.092a1.1,1.1,0,0,0,.9.838h.193a1.029,1.029,0,0,0,.9-.516l1.482-2.191,1.482-2.385a13.321,13.321,0,0,1-3.352,7.412,1.462,1.462,0,0,0,.709.387l2.9-1.547a15.565,15.565,0,0,0,2.062-7.734,15.437,15.437,0,1,0-28.359,8.508ZM34.676,10.57l.773-1.547a13.242,13.242,0,0,1,1.418,3.867l-3.223,5.156h0l-.773-3.416a1.034,1.034,0,0,0-1.031-.838l-1.418-.064c-.387-.193-.967-.58-1.031-.9-.064-.193.129-.58.709-1.16l3.738-.451A1.1,1.1,0,0,0,34.676,10.57ZM30.744,4.125a13.687,13.687,0,0,1,2.449,1.869l-2.836.322-.322-.193ZM16.307,13.986l1.934-.129,3.545,1.8-2.771,5.092-.9-3.094a1.024,1.024,0,0,0-.516-.645l-1.676-.967ZM17.789,3.8l.129,3.223L14.373,9.41a1.225,1.225,0,0,0-.451.709L12.633,8.83A13.787,13.787,0,0,1,17.789,3.8Z" transform="translate(527 4995)"/>
  </g>
</svg>

