<svg xmlns="http://www.w3.org/2000/svg" viewBox="881.412 6753.882 93.382 88.759">
  <defs>
    <style>
      .cls-1 {
        fill: none;
        stroke: #fff;
      }

      .cls-2 {
        fill: #c39456;
      }
    </style>
  </defs>
  <g id="Groupe_2070" data-name="Groupe 2070" transform="translate(-32.5 1432)">
    <path id="Tracé_2900" data-name="Tracé 2900" class="cls-1" d="M46.1,0,0,33.474,17.65,87.641H74.556l17.65-54.167Z" transform="translate(914.5 5322.5)"/>
    <path id="Tracé_274" data-name="Tracé 274" class="cls-2" d="M26.753,34.351V29.156l-9.091,5.195V29.156L8.507,34.351V18.831H0V47.4H2.273V21.1H6.234V38.247l9.156-5.195v5.195l9.091-5.195v5.195l9.156-5.195V47.338h2.273V29.091Zm.584,8.507h3.831V40.585H27.338Zm-9.156,0h3.9V40.585h-3.9Zm-9.156,0h3.831V40.585H9.026Zm0-29.286a8.034,8.034,0,0,0,6.234,3.117h0a8.4,8.4,0,0,0,5.13-1.818c3.7-2.662,7.792-11.623,7.922-12.013L28.9,1.623,27.6,1.3A53.834,53.834,0,0,0,17.273,0a13.547,13.547,0,0,0-3.961.455c-3.636,1.1-5.13,3.117-5.779,4.675a8.107,8.107,0,0,0,.26,6.494,14.759,14.759,0,0,0-4.481,5.195h2.6A13.387,13.387,0,0,1,9.026,13.572Zm.649-7.6A6.309,6.309,0,0,1,14.026,2.6a11.554,11.554,0,0,1,3.312-.39,45.77,45.77,0,0,1,8.377.974c-1.494,2.987-4.351,8.182-6.623,9.805a6.429,6.429,0,0,1-3.831,1.364,5.971,5.971,0,0,1-4.416-2.208A34.187,34.187,0,0,1,15,9.74h.065L17.922,11.1a1.2,1.2,0,0,0,.455.13A1.131,1.131,0,0,0,18.9,9.091l-1.234-.584a28.433,28.433,0,0,1,3.312-1.3,1.129,1.129,0,0,0-.714-2.143,47.706,47.706,0,0,0-6.169,2.662l.13-1.688a1.113,1.113,0,0,0-1.039-1.234,1.172,1.172,0,0,0-1.3,1.039l-.195,3.182c-.649.39-1.3.779-1.948,1.234A5.762,5.762,0,0,1,9.675,5.974Z" transform="translate(943 5346)"/>
  </g>
</svg>

