<svg xmlns="http://www.w3.org/2000/svg" viewBox="1287.412 6375.382 93.382 88.759">
  <defs>
    <style>
      .cls-1 {
        fill: none;
        stroke: #fff;
      }

      .cls-2 {
        fill: #c39456;
      }
    </style>
  </defs>
  <g id="Groupe_2071" data-name="Groupe 2071" transform="translate(-34.5 1406.5)">
    <path id="Tracé_2898" data-name="Tracé 2898" class="cls-1" d="M46.1,0,0,33.474,17.65,87.641H74.556l17.65-54.167Z" transform="translate(1322.5 4969.5)"/>
    <path id="Tracé_275" data-name="Tracé 275" class="cls-2" d="M29.3,21.216l.137-.137a6.418,6.418,0,0,0,1.511-5.767,9.73,9.73,0,0,0-5.081-7A18.227,18.227,0,0,0,14.816,6.454l-.893.206-.069.893a20.9,20.9,0,0,0,2.609,10.78A9.88,9.88,0,0,0,24.7,22.8h.275a27.624,27.624,0,0,0-1.511-2.54A7.142,7.142,0,0,1,18.524,17.1,18.218,18.218,0,0,1,16.189,8.72,16.014,16.014,0,0,1,24.7,10.505a7.277,7.277,0,0,1,3.776,5.218,4.526,4.526,0,0,1-.549,3.227,30.544,30.544,0,0,0-5.9-7.072,1.218,1.218,0,1,0-1.579,1.854,28.617,28.617,0,0,1,8.239,12.7,1.12,1.12,0,0,0,1.167.824.619.619,0,0,0,.343-.069,1.308,1.308,0,0,0,.824-1.511A23.133,23.133,0,0,0,29.3,21.216ZM33.7,3.3A23.069,23.069,0,0,0,21.751,0a23.486,23.486,0,0,0-12.7,3.845c-.206.137-5.836,3.433-4.669,12.5v.137a4.952,4.952,0,0,1,.206,2.334L.329,23.825c-.069.137-.137.206-.206.343a2.752,2.752,0,0,0,.137,2.2,2.558,2.558,0,0,0,1.922,1.1l1.991.412A8.22,8.22,0,0,1,5,30.76a17.482,17.482,0,0,1-.275,3.364c-.481,1.3-.687,3.639.961,4.875.275.137.412.137.481.206h0a5.546,5.546,0,0,0,3.09.618,29.9,29.9,0,0,0,5.836-.687,15.481,15.481,0,0,1,.618,3.09h2.4c-.481-3.776-1.167-4.944-1.579-5.356a1.068,1.068,0,0,0-1.1-.275,32.468,32.468,0,0,1-6.248.824c-1.373,0-1.854-.206-1.991-.343H7.126c-.549-.481-.206-1.854-.069-2.128,0-.069.069-.137.069-.206s.206-1.3.275-2.609l2.472.069h0a1.157,1.157,0,0,0,1.167-1.167A1.218,1.218,0,0,0,9.873,29.8L7.195,29.73a13.143,13.143,0,0,0-1.236-3.3,1.094,1.094,0,0,0-.824-.618l-2.678-.549H2.251l4.12-4.806.137-.137c.755-1.236.275-3.433.069-4.188-.755-7.553,3.5-10.093,3.708-10.23A21.136,21.136,0,0,1,21.751,2.4,20.541,20.541,0,0,1,32.256,5.287c9.887,7.278,3.845,18.332,3.364,19.225a30.177,30.177,0,0,0-3.639,8.995v.206a40.956,40.956,0,0,0,.549,8.583H35a41.831,41.831,0,0,1-.618-8.308,27.285,27.285,0,0,1,3.3-8.1.067.067,0,0,1,.069-.069C37.749,25.61,45.507,12.016,33.7,3.3Z" transform="translate(1348.046 4996)"/>
  </g>
</svg>

